# xmcd
# Track frame offsets:
# 150
# 13949
# 29696
# 41208
# 51855
# 63586
# 80012
# 92437
# 106839
# 125738
# 142759
#
# Disc length: 2102 seconds
# Revision: 0
# Processed by: cddbd v1.4PL0 Copyright (c) Steve Scherf et al.
# Submitted via: VisiTrax 2.9.5.180 - For more info visit www.synapsa.com
#
DISCID=9708340b
DTITLE=Sheb Wooley and Ben Colder - The sons of Mitch's
DYEAR=1997
DGENRE=
TTITLE0=The sons of mitch's
TTITLE1=I just look good naked anymore
TTITLE2=I gave her the ring, she gave me the finger
TTITLE3=Purple people eater
TTITLE4=That's my Pa
TTITLE5=Maybe I'm a cowboy after all
TTITLE6=Doggone it girl, I live you man
TTITLE7=The bellybutton song
TTITLE8=Amazania
TTITLE9=Caveman
TTITLE10=Repeato romero
EXTD=
EXTT0=
EXTT1=
EXTT2=
EXTT3=
EXTT4=
EXTT5=
EXTT6=
EXTT7=
EXTT8=
EXTT9=
EXTT10=
PLAYORDER=
